<mxfile host="Electron" modified="2024-05-26T18:05:24.214Z" agent="Mozilla/5.0 (Windows NT 10.0; Win64; x64) AppleWebKit/537.36 (KHTML, like Gecko) draw.io/24.0.4 Chrome/120.0.6099.109 Electron/28.1.0 Safari/537.36" etag="sPJrDJpJiK9shqjOjRwT" version="24.0.4" type="device" pages="2">
  <diagram id="1At8xpr1_yVfgjQgP_AR" name="商家條件查詢">
    <mxGraphModel dx="2405" dy="906" grid="1" gridSize="10" guides="1" tooltips="1" connect="1" arrows="1" fold="1" page="1" pageScale="1" pageWidth="827" pageHeight="1169" math="0" shadow="0">
      <root>
        <mxCell id="0" />
        <mxCell id="1" parent="0" />
        <mxCell id="RVf9csQs6JzEvKWC3PfL-1" value="" style="edgeStyle=orthogonalEdgeStyle;rounded=0;orthogonalLoop=1;jettySize=auto;html=1;dashed=1;endArrow=none;endFill=0;" edge="1" parent="1">
          <mxGeometry relative="1" as="geometry">
            <mxPoint x="25.052631578947512" y="320" as="sourcePoint" />
            <mxPoint x="25" y="840" as="targetPoint" />
          </mxGeometry>
        </mxCell>
        <mxCell id="RVf9csQs6JzEvKWC3PfL-2" value="網頁前端瀏覽器" style="shape=umlLifeline;perimeter=lifelinePerimeter;whiteSpace=wrap;html=1;container=1;collapsible=0;recursiveResize=0;outlineConnect=0;rounded=1;shadow=0;comic=0;labelBackgroundColor=none;strokeWidth=1;fontFamily=Verdana;fontSize=12;align=center;" vertex="1" parent="1">
          <mxGeometry x="240" y="80" width="100" height="760" as="geometry" />
        </mxCell>
        <mxCell id="RVf9csQs6JzEvKWC3PfL-3" value="" style="html=1;points=[];perimeter=orthogonalPerimeter;rounded=0;shadow=0;comic=0;labelBackgroundColor=none;strokeWidth=1;fontFamily=Verdana;fontSize=12;align=center;" vertex="1" parent="RVf9csQs6JzEvKWC3PfL-2">
          <mxGeometry x="45" y="100" width="10" height="550" as="geometry" />
        </mxCell>
        <mxCell id="RVf9csQs6JzEvKWC3PfL-4" value="後端系統伺服器" style="shape=umlLifeline;perimeter=lifelinePerimeter;whiteSpace=wrap;html=1;container=1;collapsible=0;recursiveResize=0;outlineConnect=0;rounded=1;shadow=0;comic=0;labelBackgroundColor=none;strokeWidth=1;fontFamily=Verdana;fontSize=12;align=center;" vertex="1" parent="1">
          <mxGeometry x="400" y="80" width="100" height="760" as="geometry" />
        </mxCell>
        <mxCell id="RVf9csQs6JzEvKWC3PfL-5" value="" style="html=1;points=[];perimeter=orthogonalPerimeter;rounded=0;shadow=0;comic=0;labelBackgroundColor=none;strokeWidth=1;fontFamily=Verdana;fontSize=12;align=center;" vertex="1" parent="RVf9csQs6JzEvKWC3PfL-4">
          <mxGeometry x="45" y="158" width="10" height="402" as="geometry" />
        </mxCell>
        <mxCell id="RVf9csQs6JzEvKWC3PfL-6" value="資料庫" style="shape=umlLifeline;perimeter=lifelinePerimeter;whiteSpace=wrap;html=1;container=1;collapsible=0;recursiveResize=0;outlineConnect=0;rounded=1;shadow=0;comic=0;labelBackgroundColor=none;strokeWidth=1;fontFamily=Verdana;fontSize=12;align=center;" vertex="1" parent="1">
          <mxGeometry x="560" y="80" width="100" height="760" as="geometry" />
        </mxCell>
        <mxCell id="RVf9csQs6JzEvKWC3PfL-9" value="" style="html=1;points=[];perimeter=orthogonalPerimeter;rounded=0;shadow=0;comic=0;labelBackgroundColor=none;strokeColor=#000000;strokeWidth=1;fillColor=#FFFFFF;fontFamily=Verdana;fontSize=12;fontColor=#000000;align=center;" vertex="1" parent="1">
          <mxGeometry x="605" y="258" width="10" height="412" as="geometry" />
        </mxCell>
        <mxCell id="RVf9csQs6JzEvKWC3PfL-13" value="設定查詢條件(地點、形容詞、關鍵字)" style="html=1;verticalAlign=bottom;endArrow=block;entryX=0;entryY=0;labelBackgroundColor=none;fontFamily=Verdana;fontSize=12;edgeStyle=elbowEdgeStyle;elbow=vertical;" edge="1" parent="1" source="RVf9csQs6JzEvKWC3PfL-15" target="RVf9csQs6JzEvKWC3PfL-3">
          <mxGeometry relative="1" as="geometry">
            <mxPoint x="220" y="190" as="sourcePoint" />
            <mxPoint as="offset" />
          </mxGeometry>
        </mxCell>
        <mxCell id="RVf9csQs6JzEvKWC3PfL-14" value="傳送查詢命令()" style="html=1;verticalAlign=bottom;endArrow=block;entryX=0;entryY=0;labelBackgroundColor=none;fontFamily=Verdana;fontSize=12;edgeStyle=elbowEdgeStyle;elbow=vertical;" edge="1" parent="1" target="RVf9csQs6JzEvKWC3PfL-5">
          <mxGeometry relative="1" as="geometry">
            <mxPoint x="295" y="238.28571428571445" as="sourcePoint" />
          </mxGeometry>
        </mxCell>
        <mxCell id="RVf9csQs6JzEvKWC3PfL-15" value="" style="html=1;points=[];perimeter=orthogonalPerimeter;rounded=0;shadow=0;comic=0;labelBackgroundColor=none;strokeWidth=1;fontFamily=Verdana;fontSize=12;align=center;" vertex="1" parent="1">
          <mxGeometry x="20" y="180" width="9.48" height="550" as="geometry" />
        </mxCell>
        <mxCell id="RVf9csQs6JzEvKWC3PfL-16" value="" style="shape=umlActor;verticalLabelPosition=bottom;verticalAlign=top;html=1;outlineConnect=0;" vertex="1" parent="1">
          <mxGeometry x="10" y="80" width="30" height="60" as="geometry" />
        </mxCell>
        <mxCell id="RVf9csQs6JzEvKWC3PfL-17" value="商家條件查詢" style="shape=umlFrame;whiteSpace=wrap;html=1;pointerEvents=0;width=120;height=40;" vertex="1" parent="1">
          <mxGeometry x="-160" y="40" width="1120" height="800" as="geometry" />
        </mxCell>
        <mxCell id="RVf9csQs6JzEvKWC3PfL-21" value="驗證查詢條件()" style="html=1;verticalAlign=bottom;endArrow=block;entryX=0;entryY=0;labelBackgroundColor=none;fontFamily=Verdana;fontSize=12;edgeStyle=elbowEdgeStyle;elbow=vertical;" edge="1" parent="1">
          <mxGeometry relative="1" as="geometry">
            <mxPoint x="455" y="258" as="sourcePoint" />
            <mxPoint x="605" y="258" as="targetPoint" />
            <mxPoint as="offset" />
          </mxGeometry>
        </mxCell>
        <mxCell id="2H-CQw8t_KRh3_wBeGRQ-1" value="觸發查詢請求()" style="html=1;verticalAlign=bottom;endArrow=block;entryX=0;entryY=0;labelBackgroundColor=none;fontFamily=Verdana;fontSize=12;edgeStyle=elbowEdgeStyle;elbow=horizontal;" edge="1" parent="1">
          <mxGeometry relative="1" as="geometry">
            <mxPoint x="30" y="209" as="sourcePoint" />
            <mxPoint as="offset" />
            <mxPoint x="285" y="209" as="targetPoint" />
          </mxGeometry>
        </mxCell>
        <mxCell id="2H-CQw8t_KRh3_wBeGRQ-2" value="OpenStreetMap" style="shape=umlLifeline;perimeter=lifelinePerimeter;whiteSpace=wrap;html=1;container=1;collapsible=0;recursiveResize=0;outlineConnect=0;rounded=1;shadow=0;comic=0;labelBackgroundColor=none;strokeWidth=1;fontFamily=Verdana;fontSize=12;align=center;" vertex="1" parent="1">
          <mxGeometry x="720" y="80" width="100" height="760" as="geometry" />
        </mxCell>
        <mxCell id="2H-CQw8t_KRh3_wBeGRQ-17" value="" style="html=1;points=[];perimeter=orthogonalPerimeter;rounded=0;shadow=0;comic=0;labelBackgroundColor=none;strokeColor=#000000;strokeWidth=1;fillColor=#FFFFFF;fontFamily=Verdana;fontSize=12;fontColor=#000000;align=center;" vertex="1" parent="2H-CQw8t_KRh3_wBeGRQ-2">
          <mxGeometry x="45" y="571" width="10" height="66" as="geometry" />
        </mxCell>
        <mxCell id="2H-CQw8t_KRh3_wBeGRQ-3" value="alt" style="shape=umlFrame;whiteSpace=wrap;html=1;pointerEvents=0;" vertex="1" parent="1">
          <mxGeometry x="-60" y="282" width="940" height="518" as="geometry" />
        </mxCell>
        <mxCell id="RVf9csQs6JzEvKWC3PfL-19" value="查詢失敗" style="html=1;verticalAlign=bottom;endArrow=open;dashed=1;endSize=8;exitX=-0.207;exitY=0.998;labelBackgroundColor=none;fontFamily=Verdana;fontSize=12;exitDx=0;exitDy=0;exitPerimeter=0;" edge="1" parent="1">
          <mxGeometry relative="1" as="geometry">
            <mxPoint x="295" y="329" as="targetPoint" />
            <mxPoint x="443" y="329" as="sourcePoint" />
          </mxGeometry>
        </mxCell>
        <mxCell id="RVf9csQs6JzEvKWC3PfL-20" value="要求重新設定查詢條件" style="html=1;verticalAlign=bottom;endArrow=open;dashed=1;endSize=8;exitX=-0.207;exitY=0.998;labelBackgroundColor=none;fontFamily=Verdana;fontSize=12;exitDx=0;exitDy=0;exitPerimeter=0;entryX=1.245;entryY=0.247;entryDx=0;entryDy=0;entryPerimeter=0;" edge="1" parent="1">
          <mxGeometry x="-0.0022" relative="1" as="geometry">
            <mxPoint x="32.44999999999982" y="350.68000000000006" as="targetPoint" />
            <mxPoint x="285" y="352" as="sourcePoint" />
            <mxPoint as="offset" />
          </mxGeometry>
        </mxCell>
        <mxCell id="2H-CQw8t_KRh3_wBeGRQ-4" value="" style="line;strokeWidth=1;fillColor=none;align=left;verticalAlign=middle;spacingTop=-1;spacingLeft=3;spacingRight=3;rotatable=0;labelPosition=right;points=[];portConstraint=eastwest;strokeColor=inherit;dashed=1;" vertex="1" parent="1">
          <mxGeometry x="-60" y="376" width="940" height="8" as="geometry" />
        </mxCell>
        <mxCell id="2H-CQw8t_KRh3_wBeGRQ-5" value="[無符合條件]" style="text;html=1;align=center;verticalAlign=middle;resizable=0;points=[];autosize=1;strokeColor=none;fillColor=none;" vertex="1" parent="1">
          <mxGeometry x="-65" y="330" width="90" height="30" as="geometry" />
        </mxCell>
        <mxCell id="2H-CQw8t_KRh3_wBeGRQ-6" value="[有符合條件]" style="text;html=1;align=center;verticalAlign=middle;resizable=0;points=[];autosize=1;strokeColor=none;fillColor=none;" vertex="1" parent="1">
          <mxGeometry x="-65" y="422" width="90" height="30" as="geometry" />
        </mxCell>
        <mxCell id="2H-CQw8t_KRh3_wBeGRQ-8" value="回傳查詢結果命令" style="html=1;verticalAlign=bottom;endArrow=open;dashed=1;endSize=8;exitX=-0.207;exitY=0.998;labelBackgroundColor=none;fontFamily=Verdana;fontSize=12;exitDx=0;exitDy=0;exitPerimeter=0;" edge="1" parent="1">
          <mxGeometry relative="1" as="geometry">
            <mxPoint x="293.55" y="500.06" as="targetPoint" />
            <mxPoint x="441.55" y="500.06" as="sourcePoint" />
          </mxGeometry>
        </mxCell>
        <mxCell id="2H-CQw8t_KRh3_wBeGRQ-9" value="顯示查詢結果" style="html=1;verticalAlign=bottom;endArrow=open;dashed=1;endSize=8;exitX=-0.207;exitY=0.998;labelBackgroundColor=none;fontFamily=Verdana;fontSize=12;exitDx=0;exitDy=0;exitPerimeter=0;entryX=1.245;entryY=0.247;entryDx=0;entryDy=0;entryPerimeter=0;" edge="1" parent="1">
          <mxGeometry x="-0.0022" relative="1" as="geometry">
            <mxPoint x="30.999999999999815" y="527.74" as="targetPoint" />
            <mxPoint x="283.55" y="529.06" as="sourcePoint" />
            <mxPoint as="offset" />
          </mxGeometry>
        </mxCell>
        <mxCell id="2H-CQw8t_KRh3_wBeGRQ-12" value="" style="group" vertex="1" connectable="0" parent="1">
          <mxGeometry x="455" y="295" width="147.92999999999984" height="26" as="geometry" />
        </mxCell>
        <mxCell id="RVf9csQs6JzEvKWC3PfL-11" value="" style="html=1;verticalAlign=bottom;endArrow=open;dashed=1;endSize=8;exitX=-0.207;exitY=0.998;labelBackgroundColor=none;fontFamily=Verdana;fontSize=12;exitDx=0;exitDy=0;exitPerimeter=0;" edge="1" parent="2H-CQw8t_KRh3_wBeGRQ-12">
          <mxGeometry relative="1" as="geometry">
            <mxPoint y="15" as="targetPoint" />
            <mxPoint x="147.92999999999984" y="14.940000000000055" as="sourcePoint" />
          </mxGeometry>
        </mxCell>
        <mxCell id="2H-CQw8t_KRh3_wBeGRQ-11" value="&lt;font face=&quot;Verdana&quot;&gt;&lt;span style=&quot;text-wrap: nowrap;&quot;&gt;無相符的結果&lt;/span&gt;&lt;/font&gt;" style="text;whiteSpace=wrap;html=1;align=center;" vertex="1" parent="2H-CQw8t_KRh3_wBeGRQ-12">
          <mxGeometry x="11" y="-9" width="130" height="26" as="geometry" />
        </mxCell>
        <mxCell id="2H-CQw8t_KRh3_wBeGRQ-13" value="有符合的結果" style="html=1;verticalAlign=bottom;endArrow=open;dashed=1;endSize=8;exitX=-0.207;exitY=0.998;labelBackgroundColor=none;fontFamily=Verdana;fontSize=12;exitDx=0;exitDy=0;exitPerimeter=0;" edge="1" parent="1">
          <mxGeometry relative="1" as="geometry">
            <mxPoint x="457" y="410" as="targetPoint" />
            <mxPoint x="605" y="410" as="sourcePoint" />
          </mxGeometry>
        </mxCell>
        <mxCell id="2H-CQw8t_KRh3_wBeGRQ-14" value="查詢符合的餐廳()" style="html=1;verticalAlign=bottom;endArrow=block;entryX=0;entryY=0;labelBackgroundColor=none;fontFamily=Verdana;fontSize=12;edgeStyle=elbowEdgeStyle;elbow=vertical;" edge="1" parent="1">
          <mxGeometry relative="1" as="geometry">
            <mxPoint x="455" y="436.65999999999997" as="sourcePoint" />
            <mxPoint x="605" y="436.65999999999997" as="targetPoint" />
            <mxPoint as="offset" />
          </mxGeometry>
        </mxCell>
        <mxCell id="2H-CQw8t_KRh3_wBeGRQ-15" value="回傳查詢結果" style="html=1;verticalAlign=bottom;endArrow=open;dashed=1;endSize=8;exitX=-0.207;exitY=0.998;labelBackgroundColor=none;fontFamily=Verdana;fontSize=12;exitDx=0;exitDy=0;exitPerimeter=0;" edge="1" parent="1">
          <mxGeometry relative="1" as="geometry">
            <mxPoint x="454.93" y="471" as="targetPoint" />
            <mxPoint x="602.9300000000001" y="471" as="sourcePoint" />
          </mxGeometry>
        </mxCell>
        <mxCell id="2H-CQw8t_KRh3_wBeGRQ-16" value="顯示地圖請求()" style="html=1;verticalAlign=bottom;endArrow=block;entryX=0;entryY=0;labelBackgroundColor=none;fontFamily=Verdana;fontSize=12;edgeStyle=elbowEdgeStyle;elbow=vertical;" edge="1" parent="1">
          <mxGeometry relative="1" as="geometry">
            <mxPoint x="615" y="657.5" as="sourcePoint" />
            <mxPoint x="765" y="657.5" as="targetPoint" />
            <mxPoint as="offset" />
          </mxGeometry>
        </mxCell>
        <mxCell id="2H-CQw8t_KRh3_wBeGRQ-18" value="&lt;font style=&quot;font-size: 14px;&quot;&gt;使用者&lt;/font&gt;" style="text;html=1;align=center;verticalAlign=middle;resizable=0;points=[];autosize=1;strokeColor=none;fillColor=none;" vertex="1" parent="1">
          <mxGeometry x="-10" y="140" width="70" height="30" as="geometry" />
        </mxCell>
        <mxCell id="2H-CQw8t_KRh3_wBeGRQ-21" value="回傳地圖顯示資訊" style="html=1;verticalAlign=bottom;endArrow=open;dashed=1;endSize=8;exitX=-0.207;exitY=0.998;labelBackgroundColor=none;fontFamily=Verdana;fontSize=12;exitDx=0;exitDy=0;exitPerimeter=0;" edge="1" parent="1">
          <mxGeometry relative="1" as="geometry">
            <mxPoint x="295" y="707" as="targetPoint" />
            <mxPoint x="763" y="707" as="sourcePoint" />
          </mxGeometry>
        </mxCell>
        <mxCell id="2H-CQw8t_KRh3_wBeGRQ-22" value="顯示地圖畫面" style="html=1;verticalAlign=bottom;endArrow=open;dashed=1;endSize=8;exitX=-0.207;exitY=0.998;labelBackgroundColor=none;fontFamily=Verdana;fontSize=12;exitDx=0;exitDy=0;exitPerimeter=0;entryX=1.245;entryY=0.247;entryDx=0;entryDy=0;entryPerimeter=0;" edge="1" parent="1">
          <mxGeometry x="-0.0022" relative="1" as="geometry">
            <mxPoint x="29.999999999999815" y="717" as="targetPoint" />
            <mxPoint x="282.55" y="718.3199999999999" as="sourcePoint" />
            <mxPoint as="offset" />
          </mxGeometry>
        </mxCell>
        <mxCell id="2H-CQw8t_KRh3_wBeGRQ-25" value="查詢經緯度資訊()" style="html=1;verticalAlign=bottom;endArrow=block;entryX=0;entryY=0;labelBackgroundColor=none;fontFamily=Verdana;fontSize=12;edgeStyle=elbowEdgeStyle;elbow=vertical;" edge="1" parent="1">
          <mxGeometry relative="1" as="geometry">
            <mxPoint x="455" y="529.2099999999999" as="sourcePoint" />
            <mxPoint x="605" y="529.2099999999999" as="targetPoint" />
            <mxPoint as="offset" />
          </mxGeometry>
        </mxCell>
        <mxCell id="2H-CQw8t_KRh3_wBeGRQ-26" value="回傳經緯度資訊" style="html=1;verticalAlign=bottom;endArrow=open;dashed=1;endSize=8;exitX=-0.207;exitY=0.998;labelBackgroundColor=none;fontFamily=Verdana;fontSize=12;exitDx=0;exitDy=0;exitPerimeter=0;" edge="1" parent="1">
          <mxGeometry relative="1" as="geometry">
            <mxPoint x="454.93" y="563.55" as="targetPoint" />
            <mxPoint x="602.9300000000001" y="563.55" as="sourcePoint" />
          </mxGeometry>
        </mxCell>
        <mxCell id="2H-CQw8t_KRh3_wBeGRQ-27" value="提取經緯度()" style="html=1;verticalAlign=bottom;endArrow=block;entryX=0;entryY=0;labelBackgroundColor=none;fontFamily=Verdana;fontSize=12;edgeStyle=elbowEdgeStyle;elbow=vertical;" edge="1" parent="1">
          <mxGeometry relative="1" as="geometry">
            <mxPoint x="453.97" y="619.9999999999999" as="sourcePoint" />
            <mxPoint x="603.97" y="619.9999999999999" as="targetPoint" />
            <mxPoint as="offset" />
          </mxGeometry>
        </mxCell>
      </root>
    </mxGraphModel>
  </diagram>
  <diagram name="商家資訊檢視" id="13e1069c-82ec-6db2-03f1-153e76fe0fe0">
    <mxGraphModel dx="2585" dy="853" grid="1" gridSize="10" guides="1" tooltips="1" connect="1" arrows="1" fold="1" page="1" pageScale="1" pageWidth="1100" pageHeight="850" background="none" math="0" shadow="0">
      <root>
        <mxCell id="0" />
        <mxCell id="1" parent="0" />
        <mxCell id="HVXco7oXcqYkLwGL9J3m-1" value="" style="edgeStyle=orthogonalEdgeStyle;rounded=0;orthogonalLoop=1;jettySize=auto;html=1;dashed=1;endArrow=none;endFill=0;" edge="1" parent="1">
          <mxGeometry relative="1" as="geometry">
            <mxPoint x="25.052631578947512" y="320" as="sourcePoint" />
            <mxPoint x="25" y="840" as="targetPoint" />
          </mxGeometry>
        </mxCell>
        <mxCell id="HVXco7oXcqYkLwGL9J3m-2" value="網頁前端瀏覽器" style="shape=umlLifeline;perimeter=lifelinePerimeter;whiteSpace=wrap;html=1;container=1;collapsible=0;recursiveResize=0;outlineConnect=0;rounded=1;shadow=0;comic=0;labelBackgroundColor=none;strokeWidth=1;fontFamily=Verdana;fontSize=12;align=center;" vertex="1" parent="1">
          <mxGeometry x="240" y="80" width="100" height="760" as="geometry" />
        </mxCell>
        <mxCell id="HVXco7oXcqYkLwGL9J3m-3" value="" style="html=1;points=[];perimeter=orthogonalPerimeter;rounded=0;shadow=0;comic=0;labelBackgroundColor=none;strokeWidth=1;fontFamily=Verdana;fontSize=12;align=center;" vertex="1" parent="HVXco7oXcqYkLwGL9J3m-2">
          <mxGeometry x="45" y="101" width="10" height="629" as="geometry" />
        </mxCell>
        <mxCell id="HVXco7oXcqYkLwGL9J3m-4" value="後端系統伺服器" style="shape=umlLifeline;perimeter=lifelinePerimeter;whiteSpace=wrap;html=1;container=1;collapsible=0;recursiveResize=0;outlineConnect=0;rounded=1;shadow=0;comic=0;labelBackgroundColor=none;strokeWidth=1;fontFamily=Verdana;fontSize=12;align=center;" vertex="1" parent="1">
          <mxGeometry x="400" y="80" width="100" height="760" as="geometry" />
        </mxCell>
        <mxCell id="HVXco7oXcqYkLwGL9J3m-5" value="" style="html=1;points=[];perimeter=orthogonalPerimeter;rounded=0;shadow=0;comic=0;labelBackgroundColor=none;strokeWidth=1;fontFamily=Verdana;fontSize=12;align=center;" vertex="1" parent="HVXco7oXcqYkLwGL9J3m-4">
          <mxGeometry x="45" y="203" width="10" height="427" as="geometry" />
        </mxCell>
        <mxCell id="HVXco7oXcqYkLwGL9J3m-6" value="資料庫" style="shape=umlLifeline;perimeter=lifelinePerimeter;whiteSpace=wrap;html=1;container=1;collapsible=0;recursiveResize=0;outlineConnect=0;rounded=1;shadow=0;comic=0;labelBackgroundColor=none;strokeWidth=1;fontFamily=Verdana;fontSize=12;align=center;" vertex="1" parent="1">
          <mxGeometry x="560" y="80" width="100" height="760" as="geometry" />
        </mxCell>
        <mxCell id="HVXco7oXcqYkLwGL9J3m-7" value="" style="html=1;points=[];perimeter=orthogonalPerimeter;rounded=0;shadow=0;comic=0;labelBackgroundColor=none;strokeColor=#000000;strokeWidth=1;fillColor=#FFFFFF;fontFamily=Verdana;fontSize=12;fontColor=#000000;align=center;" vertex="1" parent="1">
          <mxGeometry x="605" y="303" width="10" height="447" as="geometry" />
        </mxCell>
        <mxCell id="HVXco7oXcqYkLwGL9J3m-9" value="&lt;span style=&quot;text-align: left;&quot;&gt;發送商家詳細請求&lt;/span&gt;()" style="html=1;verticalAlign=bottom;endArrow=block;entryX=0;entryY=0;labelBackgroundColor=none;fontFamily=Verdana;fontSize=12;edgeStyle=elbowEdgeStyle;elbow=horizontal;" edge="1" parent="1" target="HVXco7oXcqYkLwGL9J3m-5">
          <mxGeometry relative="1" as="geometry">
            <mxPoint x="295" y="283.28571428571445" as="sourcePoint" />
          </mxGeometry>
        </mxCell>
        <mxCell id="HVXco7oXcqYkLwGL9J3m-10" value="" style="html=1;points=[];perimeter=orthogonalPerimeter;rounded=0;shadow=0;comic=0;labelBackgroundColor=none;strokeWidth=1;fontFamily=Verdana;fontSize=12;align=center;" vertex="1" parent="1">
          <mxGeometry x="20" y="181" width="9.48" height="629" as="geometry" />
        </mxCell>
        <mxCell id="HVXco7oXcqYkLwGL9J3m-11" value="" style="shape=umlActor;verticalLabelPosition=bottom;verticalAlign=top;html=1;outlineConnect=0;" vertex="1" parent="1">
          <mxGeometry x="10" y="80" width="30" height="60" as="geometry" />
        </mxCell>
        <mxCell id="HVXco7oXcqYkLwGL9J3m-12" value="商家資訊檢視" style="shape=umlFrame;whiteSpace=wrap;html=1;pointerEvents=0;width=120;height=40;" vertex="1" parent="1">
          <mxGeometry x="-160" y="40" width="1120" height="800" as="geometry" />
        </mxCell>
        <mxCell id="HVXco7oXcqYkLwGL9J3m-13" value="&lt;span style=&quot;text-align: left;&quot;&gt;查詢商家詳細資訊&lt;/span&gt;()" style="html=1;verticalAlign=bottom;endArrow=block;entryX=0;entryY=0;labelBackgroundColor=none;fontFamily=Verdana;fontSize=12;edgeStyle=elbowEdgeStyle;elbow=horizontal;" edge="1" parent="1">
          <mxGeometry relative="1" as="geometry">
            <mxPoint x="455" y="303" as="sourcePoint" />
            <mxPoint x="605" y="303" as="targetPoint" />
            <mxPoint as="offset" />
          </mxGeometry>
        </mxCell>
        <mxCell id="HVXco7oXcqYkLwGL9J3m-14" value="&lt;div style=&quot;text-align: left;&quot;&gt;&lt;span style=&quot;font-family: Helvetica; background-color: initial; text-align: center;&quot;&gt;點擊地圖標記&lt;/span&gt;&lt;span style=&quot;background-color: initial;&quot;&gt;()&lt;/span&gt;&lt;/div&gt;" style="html=1;verticalAlign=bottom;endArrow=block;entryX=0;entryY=0;labelBackgroundColor=none;fontFamily=Verdana;fontSize=12;edgeStyle=elbowEdgeStyle;elbow=vertical;" edge="1" parent="1">
          <mxGeometry x="0.003" relative="1" as="geometry">
            <mxPoint x="29.48" y="265" as="sourcePoint" />
            <mxPoint as="offset" />
            <mxPoint x="284.48" y="265" as="targetPoint" />
          </mxGeometry>
        </mxCell>
        <mxCell id="HVXco7oXcqYkLwGL9J3m-15" value="OpenStreetMap" style="shape=umlLifeline;perimeter=lifelinePerimeter;whiteSpace=wrap;html=1;container=1;collapsible=0;recursiveResize=0;outlineConnect=0;rounded=1;shadow=0;comic=0;labelBackgroundColor=none;strokeWidth=1;fontFamily=Verdana;fontSize=12;align=center;" vertex="1" parent="1">
          <mxGeometry x="720" y="80" width="100" height="760" as="geometry" />
        </mxCell>
        <mxCell id="HVXco7oXcqYkLwGL9J3m-16" value="" style="html=1;points=[];perimeter=orthogonalPerimeter;rounded=0;shadow=0;comic=0;labelBackgroundColor=none;strokeColor=#000000;strokeWidth=1;fillColor=#FFFFFF;fontFamily=Verdana;fontSize=12;fontColor=#000000;align=center;" vertex="1" parent="HVXco7oXcqYkLwGL9J3m-15">
          <mxGeometry x="45" y="660" width="10" height="66" as="geometry" />
        </mxCell>
        <mxCell id="HVXco7oXcqYkLwGL9J3m-23" value="回傳&lt;span style=&quot;text-align: left;&quot;&gt;商家詳細資訊&lt;/span&gt;" style="html=1;verticalAlign=bottom;endArrow=open;dashed=1;endSize=8;exitX=-0.207;exitY=0.998;labelBackgroundColor=none;fontFamily=Verdana;fontSize=12;exitDx=0;exitDy=0;exitPerimeter=0;" edge="1" parent="1">
          <mxGeometry relative="1" as="geometry">
            <mxPoint x="293.55" y="545.06" as="targetPoint" />
            <mxPoint x="441.55" y="545.06" as="sourcePoint" />
          </mxGeometry>
        </mxCell>
        <mxCell id="HVXco7oXcqYkLwGL9J3m-24" value="&lt;span style=&quot;text-align: left;&quot;&gt;顯示商家詳細資訊&lt;/span&gt;" style="html=1;verticalAlign=bottom;endArrow=open;dashed=1;endSize=8;exitX=-0.207;exitY=0.998;labelBackgroundColor=none;fontFamily=Verdana;fontSize=12;exitDx=0;exitDy=0;exitPerimeter=0;entryX=1.245;entryY=0.247;entryDx=0;entryDy=0;entryPerimeter=0;" edge="1" parent="1">
          <mxGeometry x="-0.0022" relative="1" as="geometry">
            <mxPoint x="30.999999999999815" y="572.74" as="targetPoint" />
            <mxPoint x="283.55" y="574.06" as="sourcePoint" />
            <mxPoint as="offset" />
          </mxGeometry>
        </mxCell>
        <mxCell id="HVXco7oXcqYkLwGL9J3m-30" value="回傳查詢結果" style="html=1;verticalAlign=bottom;endArrow=open;dashed=1;endSize=8;exitX=-0.207;exitY=0.998;labelBackgroundColor=none;fontFamily=Verdana;fontSize=12;exitDx=0;exitDy=0;exitPerimeter=0;" edge="1" parent="1">
          <mxGeometry relative="1" as="geometry">
            <mxPoint x="454.93" y="516" as="targetPoint" />
            <mxPoint x="602.9300000000001" y="516" as="sourcePoint" />
          </mxGeometry>
        </mxCell>
        <mxCell id="HVXco7oXcqYkLwGL9J3m-31" value="顯示地圖請求()" style="html=1;verticalAlign=bottom;endArrow=block;entryX=0;entryY=0;labelBackgroundColor=none;fontFamily=Verdana;fontSize=12;edgeStyle=elbowEdgeStyle;elbow=vertical;" edge="1" parent="1">
          <mxGeometry relative="1" as="geometry">
            <mxPoint x="615" y="746.5" as="sourcePoint" />
            <mxPoint x="765" y="746.5" as="targetPoint" />
            <mxPoint as="offset" />
          </mxGeometry>
        </mxCell>
        <mxCell id="HVXco7oXcqYkLwGL9J3m-32" value="&lt;font style=&quot;font-size: 14px;&quot;&gt;使用者&lt;/font&gt;" style="text;html=1;align=center;verticalAlign=middle;resizable=0;points=[];autosize=1;strokeColor=none;fillColor=none;" vertex="1" parent="1">
          <mxGeometry x="-10" y="140" width="70" height="30" as="geometry" />
        </mxCell>
        <mxCell id="HVXco7oXcqYkLwGL9J3m-33" value="回傳地圖顯示資訊" style="html=1;verticalAlign=bottom;endArrow=open;dashed=1;endSize=8;exitX=-0.207;exitY=0.998;labelBackgroundColor=none;fontFamily=Verdana;fontSize=12;exitDx=0;exitDy=0;exitPerimeter=0;" edge="1" parent="1">
          <mxGeometry relative="1" as="geometry">
            <mxPoint x="295" y="796" as="targetPoint" />
            <mxPoint x="763" y="796" as="sourcePoint" />
          </mxGeometry>
        </mxCell>
        <mxCell id="HVXco7oXcqYkLwGL9J3m-34" value="顯示地圖畫面" style="html=1;verticalAlign=bottom;endArrow=open;dashed=1;endSize=8;exitX=-0.207;exitY=0.998;labelBackgroundColor=none;fontFamily=Verdana;fontSize=12;exitDx=0;exitDy=0;exitPerimeter=0;entryX=1.245;entryY=0.247;entryDx=0;entryDy=0;entryPerimeter=0;" edge="1" parent="1">
          <mxGeometry x="-0.0022" relative="1" as="geometry">
            <mxPoint x="29.999999999999815" y="806" as="targetPoint" />
            <mxPoint x="282.55" y="807.3199999999999" as="sourcePoint" />
            <mxPoint as="offset" />
          </mxGeometry>
        </mxCell>
        <mxCell id="HVXco7oXcqYkLwGL9J3m-35" value="查詢經緯度資訊()" style="html=1;verticalAlign=bottom;endArrow=block;entryX=0;entryY=0;labelBackgroundColor=none;fontFamily=Verdana;fontSize=12;edgeStyle=elbowEdgeStyle;elbow=vertical;" edge="1" parent="1">
          <mxGeometry relative="1" as="geometry">
            <mxPoint x="455" y="618.2099999999999" as="sourcePoint" />
            <mxPoint x="605" y="618.2099999999999" as="targetPoint" />
            <mxPoint as="offset" />
          </mxGeometry>
        </mxCell>
        <mxCell id="HVXco7oXcqYkLwGL9J3m-36" value="回傳經緯度資訊" style="html=1;verticalAlign=bottom;endArrow=open;dashed=1;endSize=8;exitX=-0.207;exitY=0.998;labelBackgroundColor=none;fontFamily=Verdana;fontSize=12;exitDx=0;exitDy=0;exitPerimeter=0;" edge="1" parent="1">
          <mxGeometry relative="1" as="geometry">
            <mxPoint x="454.93" y="652.55" as="targetPoint" />
            <mxPoint x="602.9300000000001" y="652.55" as="sourcePoint" />
          </mxGeometry>
        </mxCell>
        <mxCell id="HVXco7oXcqYkLwGL9J3m-37" value="提取經緯度()" style="html=1;verticalAlign=bottom;endArrow=block;entryX=0;entryY=0;labelBackgroundColor=none;fontFamily=Verdana;fontSize=12;edgeStyle=elbowEdgeStyle;elbow=vertical;" edge="1" parent="1">
          <mxGeometry relative="1" as="geometry">
            <mxPoint x="453.97" y="708.9999999999999" as="sourcePoint" />
            <mxPoint x="603.97" y="708.9999999999999" as="targetPoint" />
            <mxPoint as="offset" />
          </mxGeometry>
        </mxCell>
        <mxCell id="gl1ClcTvmYKROfc3YUsl-1" value="alt" style="shape=umlFrame;whiteSpace=wrap;html=1;pointerEvents=0;" vertex="1" parent="1">
          <mxGeometry x="-105" y="241" width="940" height="349" as="geometry" />
        </mxCell>
        <mxCell id="gl1ClcTvmYKROfc3YUsl-2" value="" style="line;strokeWidth=1;fillColor=none;align=left;verticalAlign=middle;spacingTop=-1;spacingLeft=3;spacingRight=3;rotatable=0;labelPosition=right;points=[];portConstraint=eastwest;strokeColor=inherit;dashed=1;" vertex="1" parent="1">
          <mxGeometry x="-105" y="425" width="940" height="8" as="geometry" />
        </mxCell>
        <mxCell id="gl1ClcTvmYKROfc3YUsl-3" value="[地圖標記]" style="text;html=1;align=center;verticalAlign=middle;resizable=0;points=[];autosize=1;strokeColor=none;fillColor=none;perimeterSpacing=0;spacing=11;spacingRight=0;spacingTop=0;" vertex="1" parent="1">
          <mxGeometry x="-90" y="280" width="90" height="40" as="geometry" />
        </mxCell>
        <mxCell id="gl1ClcTvmYKROfc3YUsl-4" value="[商家列表]" style="text;html=1;align=center;verticalAlign=middle;resizable=0;points=[];autosize=1;strokeColor=none;fillColor=none;" vertex="1" parent="1">
          <mxGeometry x="-85" y="471" width="80" height="30" as="geometry" />
        </mxCell>
        <mxCell id="TZsSCCoxqD4zyhbNUJKJ-1" value="得知搜尋結果" style="html=1;verticalAlign=bottom;endArrow=open;dashed=1;endSize=8;exitX=-0.207;exitY=0.998;labelBackgroundColor=none;fontFamily=Verdana;fontSize=12;exitDx=0;exitDy=0;exitPerimeter=0;entryX=1.245;entryY=0.247;entryDx=0;entryDy=0;entryPerimeter=0;" edge="1" parent="1">
          <mxGeometry x="-0.0022" relative="1" as="geometry">
            <mxPoint x="29.479999999999816" y="189" as="targetPoint" />
            <mxPoint x="282.03000000000003" y="190.31999999999994" as="sourcePoint" />
            <mxPoint as="offset" />
          </mxGeometry>
        </mxCell>
        <mxCell id="TZsSCCoxqD4zyhbNUJKJ-3" value="&lt;div style=&quot;text-align: left;&quot;&gt;&lt;span style=&quot;font-family: Helvetica; background-color: initial; text-align: center;&quot;&gt;點擊&lt;/span&gt;&lt;span style=&quot;font-family: Helvetica; text-align: center;&quot;&gt;商家列表&lt;/span&gt;&lt;span style=&quot;background-color: initial;&quot;&gt;()&lt;/span&gt;&lt;/div&gt;" style="html=1;verticalAlign=bottom;endArrow=block;entryX=0;entryY=0;labelBackgroundColor=none;fontFamily=Verdana;fontSize=12;edgeStyle=elbowEdgeStyle;elbow=vertical;" edge="1" parent="1">
          <mxGeometry x="0.003" relative="1" as="geometry">
            <mxPoint x="29.480000000000004" y="459.47" as="sourcePoint" />
            <mxPoint as="offset" />
            <mxPoint x="284.48" y="459.47" as="targetPoint" />
          </mxGeometry>
        </mxCell>
        <mxCell id="TZsSCCoxqD4zyhbNUJKJ-5" value="回傳&lt;span style=&quot;text-align: left;&quot;&gt;商家詳細資訊&lt;/span&gt;" style="html=1;verticalAlign=bottom;endArrow=open;dashed=1;endSize=8;exitX=-0.207;exitY=0.998;labelBackgroundColor=none;fontFamily=Verdana;fontSize=12;exitDx=0;exitDy=0;exitPerimeter=0;" edge="1" parent="1">
          <mxGeometry relative="1" as="geometry">
            <mxPoint x="295.62" y="369.05999999999995" as="targetPoint" />
            <mxPoint x="443.62" y="369.05999999999995" as="sourcePoint" />
          </mxGeometry>
        </mxCell>
        <mxCell id="TZsSCCoxqD4zyhbNUJKJ-6" value="&lt;span style=&quot;text-align: left;&quot;&gt;顯示商家詳細資訊&lt;/span&gt;" style="html=1;verticalAlign=bottom;endArrow=open;dashed=1;endSize=8;exitX=-0.207;exitY=0.998;labelBackgroundColor=none;fontFamily=Verdana;fontSize=12;exitDx=0;exitDy=0;exitPerimeter=0;entryX=1.245;entryY=0.247;entryDx=0;entryDy=0;entryPerimeter=0;" edge="1" parent="1">
          <mxGeometry x="-0.0022" relative="1" as="geometry">
            <mxPoint x="33.069999999999816" y="396.74" as="targetPoint" />
            <mxPoint x="285.62" y="398.05999999999995" as="sourcePoint" />
            <mxPoint as="offset" />
          </mxGeometry>
        </mxCell>
        <mxCell id="TZsSCCoxqD4zyhbNUJKJ-7" value="回傳查詢結果" style="html=1;verticalAlign=bottom;endArrow=open;dashed=1;endSize=8;exitX=-0.207;exitY=0.998;labelBackgroundColor=none;fontFamily=Verdana;fontSize=12;exitDx=0;exitDy=0;exitPerimeter=0;" edge="1" parent="1">
          <mxGeometry relative="1" as="geometry">
            <mxPoint x="457" y="340" as="targetPoint" />
            <mxPoint x="605.0000000000001" y="340" as="sourcePoint" />
          </mxGeometry>
        </mxCell>
        <mxCell id="TZsSCCoxqD4zyhbNUJKJ-8" value="&lt;span style=&quot;text-align: left;&quot;&gt;發送商家詳細請求&lt;/span&gt;()" style="html=1;verticalAlign=bottom;endArrow=block;entryX=0;entryY=0;labelBackgroundColor=none;fontFamily=Verdana;fontSize=12;edgeStyle=elbowEdgeStyle;elbow=horizontal;" edge="1" parent="1">
          <mxGeometry relative="1" as="geometry">
            <mxPoint x="295" y="475.6957142857144" as="sourcePoint" />
            <mxPoint x="445" y="475.40999999999997" as="targetPoint" />
          </mxGeometry>
        </mxCell>
        <mxCell id="TZsSCCoxqD4zyhbNUJKJ-9" value="&lt;span style=&quot;text-align: left;&quot;&gt;查詢商家詳細資訊&lt;/span&gt;()" style="html=1;verticalAlign=bottom;endArrow=block;entryX=0;entryY=0;labelBackgroundColor=none;fontFamily=Verdana;fontSize=12;edgeStyle=elbowEdgeStyle;elbow=horizontal;" edge="1" parent="1">
          <mxGeometry relative="1" as="geometry">
            <mxPoint x="455" y="495.40999999999997" as="sourcePoint" />
            <mxPoint x="605" y="495.40999999999997" as="targetPoint" />
            <mxPoint as="offset" />
          </mxGeometry>
        </mxCell>
      </root>
    </mxGraphModel>
  </diagram>
</mxfile>
